Coordinates
version=1
nRows=16
nColumns=42
inDegrees=yes

Units are S.I. units (second, meters, Newtons, ...)
If the header above contains a line with 'inDegrees', this indicates whether rotational values are in degrees (yes) or radians (no).

endheader
time	pelvis_tilt	pelvis_list	pelvis_rotation	pelvis_tx	pelvis_ty	pelvis_tz	hip_flexion_r	hip_adduction_r	hip_rotation_r	knee_angle_r	knee_adduction_r	knee_angle_r_beta	ankle_angle_r	subtalar_angle_r	mtp_angle_r	hip_flexion_l	hip_adduction_l	hip_rotation_l	knee_angle_l	knee_adduction_l	knee_angle_l_beta	ankle_angle_l	subtalar_angle_l	mtp_angle_l	lumbar_extension	lumbar_bending	lumbar_rotation	arm_flex_r	arm_add_r	arm_rot_r	elbow_flex_r	pro_sup_r	wrist_flex_r	wrist_dev_r	arm_flex_l	arm_add_l	arm_rot_l	elbow_flex_l	pro_sup_l	wrist_flex_l	wrist_dev_l
      1.10000000	      8.27210117	     -3.16939018	     -3.95611165	      0.16591930	      1.01099816	     -0.19837035	    -21.01748903	      1.92424426	     -2.41998054	      6.49383997	      9.18756865	      0.11333889	     12.29645843	      6.62758249	     -7.56592981	     15.75840380	    -12.88205056	    -12.26822104	     22.80695517	     10.79398543	      0.39805646	     -0.16698794	    -14.17735415	     -7.56592981	    -21.03844425	     -1.23711486	      9.39573433	     19.32654129	    -17.93083528	    -10.53946976	     34.07067444	     90.00000001	      0.00000000	      0.00000000	    -10.69670525	     -9.45053719	    -19.61967096	     11.88345667	     90.00000001	      0.00000000	      0.00000000
      1.11000000	      7.63255689	     -3.63832258	     -4.15229746	      0.17888868	      1.00784030	     -0.19756851	    -21.02170635	      2.43974088	     -2.34538875	      6.84847048	      8.99070611	      0.11952836	     12.66297958	      6.76966069	     -7.56492957	     16.49390378	    -13.37086714	    -12.87192390	     19.79325268	     11.05263176	      0.34545743	     -0.18692068	    -12.55017389	     -7.56492957	    -20.41761581	     -0.90497721	      9.74334689	     19.84360581	    -18.39819421	    -10.19401344	     34.75859577	     90.00000001	      0.00000000	      0.00000000	    -11.53453680	     -9.38569070	    -19.73177955	     11.86170852	     90.00000001	      0.00000000	      0.00000000
      1.12000000	      7.16757852	     -4.03201325	     -4.42687698	      0.19212686	      1.00487063	     -0.19672982	    -21.23059782	      2.77213274	     -2.20080543	      7.20465645	      8.91034361	      0.12574498	     13.03959869	      6.94750476	     -7.56399010	     16.89631614	    -13.82385621	    -13.43021141	     16.79063220	     11.50765735	      0.29305182	     -0.08417304	    -10.86637012	     -7.56399010	    -19.97864777	     -0.68829446	     10.05539558	     20.29193093	    -18.80967298	     -9.74310398	     35.55459009	     90.00000001	      0.00000000	      0.00000000	    -12.36243312	     -9.30551201	    -19.90162770	     11.76187331	     90.00000001	      0.00000000	      0.00000000
      1.13000000	      6.83891737	     -4.30320367	     -4.77624861	      0.20550924	      1.00212658	     -0.19591474	    -21.56596164	      2.94843675	     -1.90005384	      7.57943370	      8.78301526	      0.13228607	     13.39287032	      7.18482500	     -7.56303903	     16.97294337	    -14.16299007	    -13.88470990	     13.72042937	     12.11109461	      0.23946667	      0.05636199	     -8.94604415	     -7.56303903	    -19.68468376	     -0.62758441	     10.42731514	     20.64617215	    -19.26779727	     -9.19276248	     36.40011648	     90.00000001	      0.00000000	      0.00000000	    -13.05972503	     -9.23219326	    -20.17433439	     11.65360851	     90.00000001	      0.00000000	      0.00000000
      1.14000000	      7.14539117	     -4.08723665	     -5.27956694	      0.21958518	      1.00021848	     -0.19571352	    -22.61036216	      2.25677241	     -1.80040384	      7.92008839	      8.99108858	      0.13823162	     13.76947762	      7.77162819	     -7.55717928	     16.22458725	    -13.76935857	    -14.98078201	     10.87928163	     12.30440024	      0.18987928	      0.53537560	     -6.60419537	     -7.55717928	    -19.99998105	     -1.11792386	     10.73406679	     20.91310400	    -19.74086074	     -8.51710833	     37.45364503	     90.00000001	      0.00000000	      0.00000000	    -13.34506926	     -9.07273593	    -22.18444236	     10.91512984	     90.00000001	      0.00000000	      0.00000000
      1.15000000	      6.73791294	     -4.32315314	     -5.58658874	      0.23324588	      0.99741402	     -0.19496092	    -22.80435342	      2.40599111	     -1.48653166	      8.42758347	      8.83949917	      0.14708908	     13.96632399	      7.86391405	     -7.55611110	     16.55564337	    -14.06294057	    -15.32948212	      8.82871470	     12.77981071	      0.15409014	      0.60226359	     -4.95827263	     -7.55611110	    -19.60628629	     -1.07639411	     10.95812832	     21.20214389	    -20.01862991	     -8.16338618	     38.16834841	     90.00000001	      0.00000000	      0.00000000	    -14.02218928	     -9.01043342	    -22.38916080	     10.86356362	     90.00000001	      0.00000000	      0.00000000
      1.16000000	      6.47173180	     -4.41482415	     -5.91462369	      0.24725838	      0.99486610	     -0.19419044	    -23.15418144	      2.36398412	     -1.17286467	      8.91942010	      8.69904859	      0.15567325	     14.07915134	      7.89776906	     -7.55533933	     16.71757506	    -14.18912078	    -15.65347969	      7.19101619	     13.19894253	      0.12550691	      0.71556014	     -3.51885112	     -7.55533933	    -19.32379159	     -1.21870758	     11.17344926	     21.37406459	    -20.25455880	     -7.84588864	     38.82871257	     90.00000001	      0.00000000	      0.00000000	    -14.60935001	     -8.99824331	    -22.66387627	     10.78461273	     90.00000001	      0.00000000	      0.00000000
      1.17000000	      6.64012800	     -4.06722986	     -6.38502403	      0.26187912	      0.99294996	     -0.19398024	    -23.94256252	      1.58974443	     -0.87652720	      9.43166744	      8.78187856	      0.16461365	     14.16552491	      8.04463168	     -7.55282522	     16.38606529	    -13.69660962	    -16.57022369	      6.13278704	     13.29154127	      0.10703733	      1.14087867	     -1.64038996	     -7.55282522	    -19.43007934	     -1.84568408	     11.35931212	     21.40308564	    -20.51475737	     -7.40823463	     39.70662101	     90.00000001	      0.00000000	      0.00000000	    -14.96043046	     -8.92813522	    -23.73060671	     10.43106561	     90.00000001	      0.00000000	      0.00000000
      1.18000000	      6.43188071	     -4.04162429	     -6.73012467	      0.27631333	      0.99066566	     -0.19342833	    -24.24282709	      1.38669723	     -0.49130160	     10.13477113	      8.60825264	      0.17688513	     14.13421672	      7.96983167	     -7.55210092	     16.59495834	    -13.62847367	    -16.56279035	      5.59228487	     13.46486470	      0.09760378	      1.30566155	     -0.90276546	     -7.55210092	    -19.16985695	     -2.10099021	     11.51934995	     21.44540387	    -20.63015832	     -7.26164855	     40.24636747	     90.00000001	      0.00000000	      0.00000000	    -15.42705513	     -8.90699957	    -24.00805267	     10.37454170	     90.00000001	      0.00000000	      0.00000000
      1.19000000	      6.30512554	     -3.98181541	     -6.91121234	      0.29108848	      0.98856923	     -0.19310757	    -24.69998423	      1.19432337	     -0.10486668	     10.69244676	      8.42860684	      0.18661840	     14.00075751	      8.01007902	     -7.55183554	     16.88851489	    -13.47487086	    -16.31706989	      5.79304171	     13.54634895	      0.10110765	      1.29797592	     -0.75967109	     -7.55183554	    -18.96130813	     -2.34397332	     11.49031452	     21.49969497	    -20.61769775	     -7.24519120	     40.52156203	     90.00000001	      0.00000000	      0.00000000	    -15.85458520	     -8.90751341	    -24.07429251	     10.32436343	     90.00000001	      0.00000000	      0.00000000
      1.20000000	      6.46364726	     -3.42080301	     -7.51979375	      0.30611684	      0.98697874	     -0.19297711	    -25.13952747	      0.12432177	      0.22212340	     11.79836173	      8.45646432	      0.20592026	     13.72473640	      7.64063134	     -7.55091413	     16.65831520	    -12.72840587	    -16.55772923	      6.14206588	     13.37833749	      0.10719927	      1.31442971	     -0.87405825	     -7.55091413	    -19.01994789	     -3.23407708	     11.77792394	     21.08730841	    -20.81720334	     -6.96801980	     41.60404785	     90.00000001	      0.00000000	      0.00000000	    -16.08942488	     -8.89057777	    -24.57993967	     10.25401200	     90.00000001	      0.00000000	      0.00000000
      1.21000000	      6.72517142	     -2.66778950	     -7.96767486	      0.32164999	      0.98565020	     -0.19307984	    -25.78556957	     -1.12030526	      0.42990675	     12.65456572	      8.52919559	      0.22086384	     13.54985897	      7.92185781	     -7.54604464	     16.27034557	    -11.66599041	    -16.16831056	      6.53090286	     13.16559688	      0.11398576	      0.60372047	     -1.78585155	     -7.54604464	    -19.09943880	     -4.29137987	     11.74848228	     20.84765379	    -20.76301567	     -6.88628936	     42.10889510	     90.00000001	      0.00000000	      0.00000000	    -15.88285701	     -8.89190698	    -26.87964585	      9.42458902	     90.00000001	      0.00000000	      0.00000000
      1.22000000	      6.79896739	     -2.28274155	     -8.27760862	      0.33707922	      0.98426003	     -0.19296148	    -26.13946462	     -1.75033208	      0.76029168	     13.74284862	      8.31219062	      0.23985796	     12.93303096	      7.66426206	     -7.54538990	     16.36689601	    -11.16099632	    -15.85180421	      7.82970028	     13.07208196	      0.13665405	      0.13262868	     -2.44359471	     -7.54538990	    -19.03541276	     -4.93334996	     11.78497834	     20.43381044	    -20.69575977	     -6.93324185	     42.57607338	     90.00000001	      0.00000000	      0.00000000	    -16.06134220	     -8.95231164	    -26.94069173	      9.45797841	     90.00000001	      0.00000000	      0.00000000
      1.23000000	      6.89068452	     -1.63641013	     -8.64205198	      0.35287977	      0.98309589	     -0.19297151	    -26.40902636	     -2.72669624	      0.98648947	     14.95995131	      8.21087532	      0.26110041	     12.19618632	      7.24622637	     -7.54450200	     16.40348911	    -10.39196474	    -15.55087254	      9.22808011	     12.95482394	      0.16106038	     -0.86051111	     -3.44523493	     -7.54450200	    -18.92111222	     -5.85411048	     11.79715014	     19.83382690	    -20.58176183	     -7.00342102	     43.10583746	     90.00000001	      0.00000000	      0.00000000	    -16.12580987	     -9.04995410	    -27.12177546	      9.37587208	     90.00000001	      0.00000000	      0.00000000
      1.24000000	      7.00521638	     -0.72536165	     -9.02791705	      0.36875843	      0.98224726	     -0.19327765	    -26.51660291	     -4.07224968	      1.12065903	     16.42798925	      8.28147769	      0.28672250	     11.34146788	      6.71724528	     -7.54280352	     16.36136094	     -9.23724522	    -14.82438082	     10.41681245	     12.68887157	      0.18180767	     -2.37286445	     -5.12291432	     -7.54280352	    -18.78966711	     -7.03353689	     11.74772337	     19.16769959	    -20.37425298	     -7.16514590	     43.56898615	     90.00000001	      0.00000000	      0.00000000	    -16.00173544	     -9.19208349	    -27.69142433	      9.12015325	     90.00000001	      0.00000000	      0.00000000
      1.25000000	      7.23103918	     -0.01252588	     -9.18486938	      0.38460641	      0.98200104	     -0.19367655	    -26.61705263	     -5.04790122	      0.95459873	     18.14987822	      8.14242917	      0.31677513	      9.96722776	      6.48382836	     -7.53938955	     16.10946727	     -8.27683156	    -13.31931846	     11.35853422	     12.66535646	      0.19824382	     -4.20233848	     -7.54960095	     -7.53938955	    -18.85120008	     -7.98128036	     11.52054586	     18.56489708	    -20.08511872	     -7.42150371	     43.70232938	     90.00000001	      0.00000000	      0.00000000	    -15.65176616	     -9.30923944	    -28.87745535	      8.79632531	     90.00000001	      0.00000000	      0.00000000
